# xmcd CD database file
#
# Track frame offsets:
#	212
#	9817
#	26457
#	42420
#	59270
#	69107
#	87005
#	91315
#	104035
#	122827
#	134695
#	143652
#	147207
#	164540
#	183600
#
# Disc length: 2695 seconds
#
# Revision: 0
# Processed by: cddbd v1.5.2PL0 Copyright (c) Steve Scherf et al.
# Submitted via: CDex 1.51
#
DISCID=cc0a850f
DTITLE=Didier Julia - La route de la soie
DYEAR=1900
DGENRE=New Age
TTITLE0=Mille et une nuits
TTITLE1=Schéhérazade
TTITLE2=Oasis
TTITLE3=Anatolie
TTITLE4=Mirage
TTITLE5=Samarkand
TTITLE6=Potala
TTITLE7=La route de la soie
TTITLE8=Steppe mongole
TTITLE9=Enfants des monts celestes
TTITLE10=Ming ouverture
TTITLE11=Mousson
TTITLE12=Mékong
TTITLE13=Aroonwadee Le lever du jour
TTITLE14=La route de la soie II
EXTD=
EXTT0=
EXTT1=
EXTT2=
EXTT3=
EXTT4=
EXTT5=
EXTT6=
EXTT7=
EXTT8=
EXTT9=
EXTT10=
EXTT11=
EXTT12=
EXTT13=
EXTT14=
PLAYORDER=
